<svg xmlns="http://www.w3.org/2000/svg" style="display:none">
  <symbol id="icon-search" viewBox="0 0 24 24">
    <path d="M10 2a8 8 0 105.293 14.293l4.707 4.707 1.414-1.414-4.707-4.707A8 8 0 0010 2zm0 2a6 6 0 110 12A6 6 0 0110 4z"/>
  </symbol>
  <symbol id="icon-cart" viewBox="0 0 24 24">
    <path d="M7 4H5v2h2l2.4 10.8A2 2 0 0011.35 19H18a2 2 0 001.95-1.55L22 8H8.1L7 4zm3.55 13a.75.75 0 01-.73-.58L8.6 10h11.1l-1.2 6.42a.75.75 0 01-.73.58H10.55z"/>
    <path d="M10 22a2 2 0 110-4 2 2 0 010 4zm8 0a2 2 0 110-4 2 2 0 010 4z"/>
  </symbol>
  <symbol id="icon-user" viewBox="0 0 24 24">
    <path d="M12 12a5 5 0 10-5-5 5 5 0 005 5zm0 2c-4.42 0-8 2.24-8 5v1h16v-1c0-2.76-3.58-5-8-5z"/>
  </symbol>
  <symbol id="icon-heart" viewBox="0 0 24 24">
    <path d="M12 21s-7-4.35-9.33-8.28C.46 9.2 2.12 5.8 5.5 5.5c1.8-.16 3.1.8 4 1.9.9-1.1 2.2-2.06 4-1.9 3.38.3 5.04 3.7 2.83 7.22C19 16.65 12 21 12 21z"/>
  </symbol>
  <symbol id="icon-eye" viewBox="0 0 24 24">
    <path d="M12 5c5.5 0 9.5 5.4 9.5 7s-4 7-9.5 7S2.5 13.6 2.5 12 6.5 5 12 5zm0 2C8.1 7 5.1 10.7 4.6 12c.5 1.3 3.5 5 7.4 5s6.9-3.7 7.4-5c-.5-1.3-3.5-5-7.4-5zm0 2.5A2.5 2.5 0 1112 14a2.5 2.5 0 010-5z"/>
  </symbol>
  <!-- Footer icons -->
  <symbol id="i-location" viewBox="0 0 24 24">
    <path d="M12 22s7-6.2 7-13a7 7 0 1 0-14 0c0 6.8 7 13 7 13Z" fill="none" stroke="currentColor" stroke-width="2"/>
    <circle cx="12" cy="9" r="2.5" fill="none" stroke="currentColor" stroke-width="2"/>
  </symbol>
  <symbol id="i-mail" viewBox="0 0 24 24">
    <path d="M4 6h16v12H4z" fill="none" stroke="currentColor" stroke-width="2"/>
    <path d="m4 7 8 6 8-6" fill="none" stroke="currentColor" stroke-width="2"/>
  </symbol>
  <symbol id="i-phone" viewBox="0 0 24 24">
    <path d="M6 3h4l2 6-3 2c1.8 3.2 4 5.4 7.2 7.2l2-3 6 2v4c0 1-1 2-2 2-10.5 0-19-8.5-19-19 0-1 1-2 2-2Z" fill="none" stroke="currentColor" stroke-width="2" stroke-linejoin="round"/>
  </symbol>

  <symbol id="s-facebook" viewBox="0 0 24 24">
    <path d="M14 8h2V5h-2c-2.2 0-4 1.8-4 4v2H8v3h2v7h3v-7h2.3l.7-3H13V9c0-.6.4-1 1-1Z" fill="currentColor"/>
  </symbol>
  <symbol id="s-instagram" viewBox="0 0 24 24">
    <path d="M7 2h10a5 5 0 0 1 5 5v10a5 5 0 0 1-5 5H7a5 5 0 0 1-5-5V7a5 5 0 0 1 5-5Z" fill="none" stroke="currentColor" stroke-width="2"/>
    <circle cx="12" cy="12" r="3.5" fill="none" stroke="currentColor" stroke-width="2"/>
    <circle cx="17.5" cy="6.5" r="1" fill="currentColor"/>
  </symbol>
  <symbol id="s-twitter" viewBox="0 0 24 24">
    <path d="M22 6.2c-.7.3-1.5.5-2.3.6.8-.5 1.4-1.2 1.7-2.1-.8.5-1.7.8-2.6 1A3.7 3.7 0 0 0 12.4 9c0 .3 0 .6.1.9-3-.2-5.7-1.6-7.5-3.9-.3.6-.5 1.2-.5 2 0 1.3.7 2.5 1.8 3.2-.6 0-1.2-.2-1.7-.5v.1c0 1.9 1.3 3.4 3.1 3.8-.3.1-.7.1-1.1.1-.2 0-.5 0-.7-.1.5 1.6 2 2.8 3.7 2.8A7.4 7.4 0 0 1 2 19.1 10.5 10.5 0 0 0 7.7 21c6.8 0 10.5-5.7 10.5-10.6v-.5c.7-.5 1.4-1.2 1.8-2Z" fill="currentColor"/>
  </symbol>
  <symbol id="s-linkedin" viewBox="0 0 24 24">
    <path d="M6 9H3v12h3V9Zm-1.5-6A1.75 1.75 0 1 0 4.5 6 1.75 1.75 0 0 0 4.5 3ZM21 21h-3v-6.6c0-1.6-.6-2.7-2.1-2.7-1.1 0-1.8.7-2.1 1.4-.1.3-.1.7-.1 1.1V21h-3s.1-10.3 0-12h3v1.7c.4-.7 1.3-1.8 3.2-1.8 2.3 0 4.1 1.5 4.1 4.8V21Z" fill="currentColor"/>
  </symbol>
  <symbol id="s-youtube" viewBox="0 0 24 24">
    <path d="M21.8 8.1a3 3 0 0 0-2.1-2.1C18 5.5 12 5.5 12 5.5s-6 0-7.7.5A3 3 0 0 0 2.2 8.1 31.2 31.2 0 0 0 2 12a31.2 31.2 0 0 0 .2 3.9 3 3 0 0 0 2.1 2.1c1.7.5 7.7.5 7.7.5s6 0 7.7-.5a3 3 0 0 0 2.1-2.1c.2-1.3.2-2.6.2-3.9s0-2.6-.2-3.9Z" fill="currentColor"/>
    <path d="M10 15.5V8.5L16 12l-6 3.5Z" fill="#fff"/>
  </symbol>
</svg>
